{"title":"Date.Night.2010.x264.AC3(5.1).Multisub.mkv-Zen_Bud","uid":5779796,"size":1024989056,"categoryP":"video","categoryS":"movies","magnet":"?xt=urn:btih:8bdd4d41624c0c58f6d9e2bf2994acfab1dc9083&amp;dn=Date.Night.2010.x264.AC3%285.1%29.Multisub.mkv-Zen_Bud&amp;tr=udp%3A%2F%2Ftracker.openbittorrent.com%3A80&amp;tr=udp%3A%2F%2Fopen.demonii.com%3A1337&amp;tr=udp%3A%2F%2Ftracker.coppersurfer.tk%3A6969&amp;tr=udp%3A%2F%2Fexodus.desync.com%3A6969","seeders":0,"leechers":0,"uploader":"Zen_Bud","files":-1,"time":1282380897,"description":"General\nComplete name                    : Date.Night.2010.mkv\nFormat                           : Matroska\nFile size                        : 978 MiB\nDuration                         : 1h 24mn\nOverall bit rate                 : 1 623 Kbps\nWriting application              : HandBrake 0.9.4\n\nVideo\n\nFormat                           : AVC\nDuration                         : 1h 24mn\nBit rate                         : 1 143 Kbps\nWidth                            : 718 pixels\nHeight                           : 436 pixels\nDisplay aspect ratio             : 2.35:1\nStream size                      : 688 MiB (70%)\nWriting library                  : x264 core 79\n\nAudio\n\nFormat                           : AC-3\nDuration                         : 1h 24mn\nBit rate                         : 448 Kbps\nChannel(s)                       : 6 channels\nChannel positions                : Front: L C R, Side: L R, LFE\nSampling rate                    : 48.0 KHz\nStream size                      : 270 MiB (28%)\nLanguage                         : English\n\nText #1\nLanguage                         : Danish\n\nText #2\nLanguage                         : Finnish\n\nText #3\nLanguage                         : Norwegian\n\nText #4\nLanguage                         : Swedish\n\nText #5\nLanguage                         : English\n\nMenu\n00:00:00.000                     : Chapter 1\n00:03:42.640                     : Chapter 2\n\n","torrent":{"xt":"urn:btih:8bdd4d41624c0c58f6d9e2bf2994acfab1dc9083","amp;dn":"Date.Night.2010.x264.AC3%285.1%29.Multisub.mkv-Zen_Bud","amp;tr":["udp%3A%2F%2Ftracker.openbittorrent.com%3A80","udp%3A%2F%2Fopen.demonii.com%3A1337","udp%3A%2F%2Ftracker.coppersurfer.tk%3A6969","udp%3A%2F%2Fexodus.desync.com%3A6969"],"infoHash":"8bdd4d41624c0c58f6d9e2bf2994acfab1dc9083","infoHashBuffer":{"type":"Buffer","data":[139,221,77,65,98,76,12,88,246,217,226,191,41,148,172,250,177,220,144,131]},"announce":[],"urlList":[]}}